<svg xmlns="http://www.w3.org/2000/svg" version="1.1" xmlns:xlink="http://www.w3.org/1999/xlink" xmlns:svgjs="http://svgjs.com/svgjs" width="1000" height="1000"><rect width="1000" height="1000" rx="500" ry="500" fill="#ffffff"></rect><g transform="matrix(5,0,0,5,2,4)"><svg xmlns="http://www.w3.org/2000/svg" version="1.1" xmlns:xlink="http://www.w3.org/1999/xlink" xmlns:svgjs="http://svgjs.com/svgjs" width="200" height="200"><svg width="200" height="200" viewBox="0 0 200 200" fill="none" xmlns="http://www.w3.org/2000/svg">
<mask id="mask0_5_29" style="mask-type:alpha" maskUnits="userSpaceOnUse" x="0" y="0" width="200" height="200">
<rect width="200" height="200" rx="100" fill="white"></rect>
<rect width="200" height="200" rx="100" stroke="black"></rect>
</mask>
<g mask="url(#mask0_5_29)">
<rect x="-21" y="-21" width="241" height="240" fill="white"></rect>
<path d="M99.9 181C84.5 181 70.6 177.5 58.2 170.5C45.8 163.3 36 153.6 28.8 141.4C21.6 129 18 115.2 18 100C18 84.6 21.6 70.8 28.8 58.6C36 46.4 45.8 36.7 58.2 29.5C70.6 22.3 84.5 18.7 99.9 18.7C112.3 18.7 124.1 21.1 135.3 25.9C146.7 30.7 156.5 37.6 164.7 46.6L139.5 73.3C133.7 66.9 127.6 62.2 121.2 59.2C115 56 108.2 54.4 100.8 54.4C92.8 54.4 85.6 56.4 79.2 60.4C73 64.4 68 69.8 64.2 76.6C60.6 83.4 58.8 91.2 58.8 100C58.8 108.4 60.6 116.1 64.2 123.1C68 129.9 73.2 135.3 79.8 139.3C86.4 143.1 93.7 145 101.7 145C108.7 145 115.2 143.6 121.2 140.8C127.4 137.8 133.3 133.4 138.9 127.6L163.5 153.4C155.5 162 145.9 168.8 134.7 173.8C123.5 178.6 111.9 181 99.9 181Z" fill="#FFE500"></path>
<rect x="103.688" y="23.6296" width="59.9731" height="85.4422" transform="rotate(43.0385 103.688 23.6296)" fill="#FFE600"></rect>
<rect x="76.8304" y="62.174" width="93.9252" height="68.3649" transform="rotate(46.3715 76.8304 62.174)" fill="#FFE600"></rect>
</g>
</svg></svg></g></svg>