<svg width="232" height="52" viewBox="0 0 232 52" fill="none" xmlns="http://www.w3.org/2000/svg">
<mask id="mask0_2_25" style="mask-type:alpha" maskUnits="userSpaceOnUse" x="0" y="0" width="232" height="52">
<rect width="232" height="51.5556" fill="white"/>
</mask>
<g mask="url(#mask0_2_25)">
<path d="M10.7 43V16.95H17.55V19.85C18.3833 18.7167 19.3833 17.85 20.55 17.25C21.7167 16.65 23.0333 16.35 24.5 16.35C25.7667 16.3833 26.7167 16.5833 27.35 16.95V22.95C26.85 22.7167 26.3 22.55 25.7 22.45C25.1 22.3167 24.4833 22.25 23.85 22.25C22.5167 22.25 21.3 22.5833 20.2 23.25C19.1 23.9167 18.2167 24.8667 17.55 26.1V43H10.7ZM42.8348 43.5C40.2348 43.5 37.8681 42.9 35.7348 41.7C33.6348 40.5 31.9681 38.8833 30.7348 36.85C29.5014 34.8167 28.8848 32.5333 28.8848 30C28.8848 27.4667 29.4681 25.1833 30.6348 23.15C31.8348 21.1167 33.4514 19.5 35.4848 18.3C37.5181 17.1 39.7848 16.5 42.2848 16.5C44.7848 16.5 47.0014 17.1167 48.9348 18.35C50.8681 19.5833 52.3848 21.25 53.4848 23.35C54.6181 25.45 55.1848 27.8333 55.1848 30.5V32.3H35.8848C36.1848 33.3333 36.6681 34.2667 37.3348 35.1C38.0348 35.9333 38.8848 36.5833 39.8848 37.05C40.9181 37.5167 42.0181 37.75 43.1848 37.75C44.3514 37.75 45.4181 37.5667 46.3848 37.2C47.3848 36.8333 48.2348 36.3167 48.9348 35.65L53.4348 39.75C51.8348 41.05 50.1848 42 48.4848 42.6C46.8181 43.2 44.9348 43.5 42.8348 43.5ZM35.7848 27.4H48.4348C48.2014 26.3667 47.7681 25.4667 47.1348 24.7C46.5348 23.9 45.8014 23.2833 44.9348 22.85C44.1014 22.3833 43.1681 22.15 42.1348 22.15C41.0681 22.15 40.1014 22.3667 39.2348 22.8C38.3681 23.2333 37.6348 23.85 37.0348 24.65C36.4681 25.4167 36.0514 26.3333 35.7848 27.4ZM70.9992 43.4C68.0992 43.4 65.8992 42.75 64.3992 41.45C62.9326 40.1167 62.1992 38.1833 62.1992 35.65V22.65H56.8492V16.95H62.1992V10.3L69.0492 8.75V16.95H76.4992V22.65H69.0492V34.25C69.0492 35.45 69.3159 36.3167 69.8492 36.85C70.3826 37.35 71.3159 37.6 72.6492 37.6C73.3159 37.6 73.9159 37.5667 74.4492 37.5C75.0159 37.4 75.6326 37.2333 76.2992 37V42.65C75.5992 42.8833 74.7159 43.0667 73.6492 43.2C72.6159 43.3333 71.7326 43.4 70.9992 43.4ZM79.8406 43V16.95H86.6906V19.85C87.524 18.7167 88.524 17.85 89.6906 17.25C90.8573 16.65 92.174 16.35 93.6406 16.35C94.9073 16.3833 95.8573 16.5833 96.4906 16.95V22.95C95.9906 22.7167 95.4406 22.55 94.8406 22.45C94.2406 22.3167 93.624 22.25 92.9906 22.25C91.6573 22.25 90.4406 22.5833 89.3406 23.25C88.2406 23.9167 87.3573 24.8667 86.6906 26.1V43H79.8406ZM111.925 43.5C109.325 43.5 106.975 42.9 104.875 41.7C102.775 40.5 101.109 38.8833 99.8754 36.85C98.6421 34.8167 98.0254 32.5333 98.0254 30C98.0254 27.4667 98.6254 25.1833 99.8254 23.15C101.059 21.0833 102.725 19.45 104.825 18.25C106.959 17.05 109.325 16.45 111.925 16.45C114.525 16.45 116.875 17.05 118.975 18.25C121.109 19.45 122.775 21.0833 123.975 23.15C125.209 25.1833 125.825 27.4667 125.825 30C125.825 32.5333 125.209 34.8167 123.975 36.85C122.775 38.8833 121.125 40.5 119.025 41.7C116.925 42.9 114.559 43.5 111.925 43.5ZM111.925 37.55C113.292 37.55 114.509 37.2167 115.575 36.55C116.675 35.8833 117.542 34.9833 118.175 33.85C118.842 32.6833 119.175 31.4 119.175 30C119.175 28.5667 118.842 27.2833 118.175 26.15C117.542 25.0167 116.675 24.1167 115.575 23.45C114.509 22.75 113.292 22.4 111.925 22.4C110.592 22.4 109.375 22.75 108.275 23.45C107.175 24.1167 106.309 25.0167 105.675 26.15C105.042 27.2833 104.725 28.5667 104.725 30C104.725 31.4 105.042 32.6833 105.675 33.85C106.309 34.9833 107.175 35.8833 108.275 36.55C109.375 37.2167 110.592 37.55 111.925 37.55ZM130.036 43V16.95H136.886V19.1C138.853 17.3333 141.286 16.45 144.186 16.45C146.219 16.45 148.003 16.9 149.536 17.8C151.103 18.6667 152.319 19.8833 153.186 21.45C154.053 22.9833 154.486 24.7833 154.486 26.85V43H147.636V27.85C147.636 26.15 147.153 24.8167 146.186 23.85C145.219 22.85 143.903 22.35 142.236 22.35C141.069 22.35 140.036 22.5833 139.136 23.05C138.236 23.4833 137.486 24.1167 136.886 24.95V43H130.036ZM159.675 43V16.95H166.525V43H159.675ZM163.075 13.85C162.008 13.85 161.091 13.4667 160.325 12.7C159.558 11.9333 159.175 11.0167 159.175 9.95C159.175 8.85 159.558 7.93333 160.325 7.2C161.091 6.43333 162.008 6.05 163.075 6.05C164.175 6.05 165.091 6.43333 165.825 7.2C166.591 7.93333 166.975 8.85 166.975 9.95C166.975 11.0167 166.591 11.9333 165.825 12.7C165.091 13.4667 164.175 13.85 163.075 13.85ZM206.793 43.45C204.926 43.45 203.276 43.1167 201.843 42.45C200.41 41.75 199.293 40.8 198.493 39.6C197.693 38.4 197.293 37.0167 197.293 35.45C197.293 32.95 198.226 31.0167 200.093 29.65C201.993 28.25 204.593 27.55 207.893 27.55C210.16 27.55 212.293 27.9 214.293 28.6V26.7C214.293 25.2 213.826 24.0667 212.893 23.3C211.96 22.5333 210.593 22.15 208.793 22.15C207.693 22.15 206.51 22.3333 205.243 22.7C203.976 23.0333 202.51 23.5667 200.843 24.3L198.343 19.25C200.41 18.3167 202.376 17.6167 204.243 17.15C206.143 16.6833 208.043 16.45 209.943 16.45C213.443 16.45 216.16 17.3 218.093 19C220.06 20.6667 221.043 23.0333 221.043 26.1V43H214.293V41.15C213.226 41.95 212.076 42.5333 210.843 42.9C209.61 43.2667 208.26 43.45 206.793 43.45ZM203.793 35.3C203.793 36.3 204.226 37.1 205.093 37.7C205.96 38.2667 207.11 38.55 208.543 38.55C209.676 38.55 210.726 38.4167 211.693 38.15C212.66 37.85 213.526 37.4167 214.293 36.85V33.05C213.46 32.7167 212.593 32.4667 211.693 32.3C210.793 32.1333 209.826 32.05 208.793 32.05C207.226 32.05 205.993 32.35 205.093 32.95C204.226 33.5167 203.793 34.3 203.793 35.3Z" fill="#2D2D2D"/>
<path d="M184.332 43.5C181.765 43.5 179.448 42.9167 177.382 41.75C175.315 40.55 173.682 38.9333 172.482 36.9C171.282 34.8333 170.682 32.5333 170.682 30C170.682 27.4333 171.282 25.1333 172.482 23.1C173.682 21.0667 175.315 19.45 177.382 18.25C179.448 17.05 181.765 16.45 184.332 16.45C186.398 16.45 188.365 16.85 190.232 17.65C192.132 18.45 193.765 19.6 195.132 21.1L190.932 25.55C189.965 24.4833 188.948 23.7 187.882 23.2C186.848 22.6667 185.715 22.4 184.482 22.4C183.148 22.4 181.948 22.7333 180.882 23.4C179.848 24.0667 179.015 24.9667 178.382 26.1C177.782 27.2333 177.482 28.5333 177.482 30C177.482 31.4 177.782 32.6833 178.382 33.85C179.015 34.9833 179.882 35.8833 180.982 36.55C182.082 37.1833 183.298 37.5 184.632 37.5C185.798 37.5 186.882 37.2667 187.882 36.8C188.915 36.3 189.898 35.5667 190.832 34.6L194.932 38.9C193.598 40.3333 191.998 41.4667 190.132 42.3C188.265 43.1 186.332 43.5 184.332 43.5Z" fill="#FFE500"/>
<rect x="183.704" y="17.9825" width="10.451" height="12.1518" transform="rotate(43.0385 183.704 17.9825)" fill="#FFE600"/>
<rect x="181.298" y="24.5957" width="14.9428" height="10.0831" transform="rotate(46.3715 181.298 24.5957)" fill="#FFE600"/>
</g>
</svg>
